<svg width="39" height="36" viewBox="0 0 39 36" fill="none" xmlns="http://www.w3.org/2000/svg">
<path d="M9.50625 25.65C10.8875 24.675 12.4313 23.9062 14.1375 23.3438C15.8438 22.7812 17.6313 22.5 19.5 22.5C21.3687 22.5 23.1562 22.7812 24.8625 23.3438C26.5688 23.9062 28.1125 24.675 29.4937 25.65C30.4417 24.625 31.1797 23.4625 31.7078 22.1625C32.2359 20.8625 32.5 19.475 32.5 18C32.5 14.675 31.2339 11.8438 28.7016 9.50625C26.1693 7.16875 23.1021 6 19.5 6C15.8979 6 12.8307 7.16875 10.2984 9.50625C7.76615 11.8438 6.5 14.675 6.5 18C6.5 19.475 6.76406 20.8625 7.29219 22.1625C7.82031 23.4625 8.55833 24.625 9.50625 25.65ZM19.5 19.5C17.9021 19.5 16.5547 18.9938 15.4578 17.9813C14.3609 16.9688 13.8125 15.725 13.8125 14.25C13.8125 12.775 14.3609 11.5312 15.4578 10.5188C16.5547 9.50625 17.9021 9 19.5 9C21.0979 9 22.4453 9.50625 23.5422 10.5188C24.6391 11.5312 25.1875 12.775 25.1875 14.25C25.1875 15.725 24.6391 16.9688 23.5422 17.9813C22.4453 18.9938 21.0979 19.5 19.5 19.5ZM19.5 33C17.2521 33 15.1396 32.6062 13.1625 31.8187C11.1854 31.0312 9.46562 29.9625 8.00312 28.6125C6.54062 27.2625 5.38281 25.675 4.52969 23.85C3.67656 22.025 3.25 20.075 3.25 18C3.25 15.925 3.67656 13.975 4.52969 12.15C5.38281 10.325 6.54062 8.7375 8.00312 7.3875C9.46562 6.0375 11.1854 4.96875 13.1625 4.18125C15.1396 3.39375 17.2521 3 19.5 3C21.7479 3 23.8604 3.39375 25.8375 4.18125C27.8146 4.96875 29.5344 6.0375 30.9969 7.3875C32.4594 8.7375 33.6172 10.325 34.4703 12.15C35.3234 13.975 35.75 15.925 35.75 18C35.75 20.075 35.3234 22.025 34.4703 23.85C33.6172 25.675 32.4594 27.2625 30.9969 28.6125C29.5344 29.9625 27.8146 31.0312 25.8375 31.8187C23.8604 32.6062 21.7479 33 19.5 33Z" fill="#0099F2"/>
</svg>
